<?xml version="1.0" encoding="utf-8"?>
<!-- Generator: Adobe Illustrator 19.2.1, SVG Export Plug-In . SVG Version: 6.00 Build 0)  -->
<svg version="1.1" id="layer" xmlns="http://www.w3.org/2000/svg" xmlns:xlink="http://www.w3.org/1999/xlink" x="0px" y="0px"
	 viewBox="0 0 652 652" style="enable-background:new 0 0 652 652;" xml:space="preserve">
<style type="text/css">
	.st0{fill:#181E42;}
	.st1{fill:#EB5C2E;}
</style>
<g>
	<path class="st0" d="M185.4,260.9c0-45-34.7-73.4-110.2-69.7v6.3c49,1.8,65.2,32.4,65.2,63.4c0,31.3-14.4,60.8-60.8,64.1l79.6,125
		h51.2l-80.4-124.2C158.5,316.6,185.4,295.6,185.4,260.9"/>
	<path class="st1" d="M621.8,255c0-10.3-8.8-18.8-19-18.8c-10.2,0-19,8.5-19,18.8c0,10.7,8.8,19.2,19,19.2
		C613,274.2,621.8,265.7,621.8,255"/>
	<polygon class="st0" points="525.3,450 571.4,450 473.7,190.5 468.2,190.5 448.3,243.2 	"/>
	<polygon class="st0" points="371.2,450 381.9,450 449.5,267.8 444.4,254.2 	"/>
	<rect x="21.8" y="191.3" class="st0" width="45.3" height="258.8"/>
	<path class="st0" d="M331,236.2c0,25.4-8.8,39.1-22.1,49l1.8,4.1c29.1-7,53.5-25.4,53.5-54.6c0-26.8-21.6-47-59-46.1v4.9
		C320.5,197.1,331,215.4,331,236.2"/>
	<path class="st0" d="M585.4,279.7c-46.4,72.6-104.7,101-163.7,101c-76.3,0-147.1-63-147.1-136.8c0-23.4,5.8-43.6,22.5-50v-4.9
		c-35.5,5-59.7,37.3-59.7,74.4c0,75.6,75.9,136,167.7,136c66.4,0,132-31.3,185.4-116.5L585.4,279.7z"/>
	<path class="st0" d="M313.3,424.6c-35.4,0-75.9-31.3-75.9-74.8c0-11,2.1-19.6,7.1-27.8l-2.4-4.5c-16.3,11.9-31.7,34.5-31.7,60.6
		c0,42.8,33.9,76.3,80,76.3c35.3,0,59.9-17.9,75.4-50.5l-4.5-1.1C348.5,417,333.5,424.6,313.3,424.6"/>
</g>
</svg>
